PathFileType	4	(X/Y/Z)	C:\Users\chris\Documents\GitHub\baseballds\vids\pitch5_Sports2D\pitch5_Sports2D_px_person03.trc
DataRate	CameraRate	NumFrames	NumMarkers	Units	OrigDataRate	OrigDataStartFrame	OrigNumFrames
30	30	11	22	m	30	111	149
Frame#	Time	Hip			RHip			RKnee			RAnkle			RBigToe			RSmallToe			RHeel			LHip			LKnee			LAnkle			LBigToe			LSmallToe			LHeel			Neck			Head			Nose			RShoulder			RElbow			RWrist			LShoulder			LElbow			LWrist		
		X1	Y1	Z1	X2	Y2	Z2	X3	Y3	Z3	X4	Y4	Z4	X5	Y5	Z5	X6	Y6	Z6	X7	Y7	Z7	X8	Y8	Z8	X9	Y9	Z9	X10	Y10	Z10	X11	Y11	Z11	X12	Y12	Z12	X13	Y13	Z13	X14	Y14	Z14	X15	Y15	Z15	X16	Y16	Z16	X17	Y17	Z17	X18	Y18	Z18	X19	Y19	Z19	X20	Y20	Z20	X21	Y21	Z21	X22	Y22	Z22
111	3.6999999999999997	1491.936678410525	475.6681402600254	0.0	1490.551123311819	475.94036852020963	0.0	1491.1005424212512	488.7451293072394	0.0	1492.6028093209652	501.8788703955241	0.0	1486.4450715510634	505.0344339400742	0.0	1486.4424613801878	504.0350330950989	0.0	1494.1159686752299	503.38317063239566	0.0	1493.484973224277	476.12253062781025	0.0	1493.8784723321762	489.29910766103967	0.0	1495.073083306424	502.9816648261326	0.0	1490.3370479817079	505.7500077100785	0.0	1491.1943690543767	505.0090376110619	0.0	1496.8090866160835	503.8220723064748	0.0	1492.9262183193946	456.14909926000644	0.0	1490.937624682541	447.0259030529452	0.0	1489.386281685375	452.34532166125075	0.0	1491.7294406958122	459.4399142498563	0.0	1492.0989147058635	467.7337438470154	0.0	1490.7512664187868	476.7523415333101	0.0	1495.1654444841763	458.8507983780929	0.0	1495.6723370768923	468.14943823891394	0.0	1492.8231828404128	477.4997470529473	0.0
112	3.7333333333333334	1491.6481100496703	475.7680904178074	0.0	1490.1555080928179	476.0122764945111	0.0	1490.8699545740978	488.8328784344091	0.0	1492.2999391808244	501.8893830729438	0.0	1486.1628340492086	504.96333643889744	0.0	1486.1420581883845	504.05763432678964	0.0	1493.8044738835742	503.4814008024661	0.0	1493.2201004867286	476.17294151722456	0.0	1493.57215560121	489.34886960558794	0.0	1494.8439360980574	502.9590674496133	0.0	1490.0755694660302	505.7409845799468	0.0	1491.1803928141214	505.0156726370478	0.0	1496.5524913871373	503.8412946979508	0.0	1492.499651964963	456.38274723312304	0.0	1490.2631062034307	447.39010956551573	0.0	1488.9253904120314	452.76545486932577	0.0	1491.214901649681	459.73048933449684	0.0	1491.5716673053266	467.85856943950165	0.0	1490.4329205445138	476.75310802357706	0.0	1494.8032910724078	458.9685031053396	0.0	1495.4604088826602	468.2524956488911	0.0	1492.5212110200268	477.54539411747555	0.0
113	3.7666666666666666	1491.404860165783	475.7949749287597	0.0	1489.8636951309782	476.0407339270682	0.0	1490.5613905907599	488.841489483727	0.0	1491.9799282192848	501.89108240262203	0.0	1485.6941558220242	504.8923112815359	0.0	1485.8060187874707	503.9176583892259	0.0	1493.4174759328944	503.4222811564681	0.0	1493.0523231664401	476.1536516466749	0.0	1493.3792174791913	489.38027714033643	0.0	1494.5118325737467	502.97702319968585	0.0	1489.7857208891185	505.653414476376	0.0	1491.0164848177253	504.99395350459974	0.0	1496.2814574604974	503.8324125548378	0.0	1492.1324786516318	456.4466438671231	0.0	1489.8858957131665	447.55458502428945	0.0	1488.6716472723153	452.81218451907773	0.0	1490.8230591358645	459.73964765653824	0.0	1491.2202876067809	467.93929765817603	0.0	1490.0986103508956	476.78661462174983	0.0	1494.5376505141307	458.96285549281436	0.0	1495.1260204175321	468.27618894677244	0.0	1492.1542889426778	477.5081140372286	0.0
114	3.8	1491.1334268023734	475.69864058212397	0.0	1489.6156603297934	475.94882142481623	0.0	1490.1197880682919	488.73119138995264	0.0	1491.614123448453	501.77135357505915	0.0	1485.206196431871	504.77631273498633	0.0	1485.414474595918	503.73517069856155	0.0	1493.0378878581823	503.2994645915832	0.0	1492.8551847865956	476.0099709154988	0.0	1493.08515751678	489.2904074777522	0.0	1494.039925111088	502.84270971249504	0.0	1489.2013587595397	505.48373946834266	0.0	1490.3842841532169	504.8921062365184	0.0	1495.9067620968647	503.7723147794922	0.0	1491.8072161280697	456.38929938729314	0.0	1489.870506375657	447.5031218433604	0.0	1488.4957719905171	452.6485524785705	0.0	1490.3967519231405	459.5632503445746	0.0	1490.918428743648	467.87936482121825	0.0	1489.61055282779	476.7282340961315	0.0	1494.2653704941756	458.89557572945347	0.0	1494.6705608306347	468.2274144277818	0.0	1491.5753077216975	477.35852698338584	0.0
115	3.8333333333333335	1490.8430568293293	475.49719661877765	0.0	1489.3555655786683	475.7430228347992	0.0	1489.663703525677	488.5967168546847	0.0	1491.2427861298368	501.5997498710502	0.0	1484.8596115448713	504.6050499013564	0.0	1485.0268631261201	503.65063456095083	0.0	1492.7426264365918	503.2747421306306	0.0	1492.595813376347	475.78408426434106	0.0	1492.6646819643472	489.08314277192807	0.0	1493.6053783553089	502.6065963715382	0.0	1488.4357799337288	505.35586118529153	0.0	1489.5310398318513	504.8101379106181	0.0	1495.5264795855421	503.73862571826373	0.0	1491.4463064581957	456.33920693429184	0.0	1489.8881867366886	447.4005839340831	0.0	1488.190527755388	452.60769934412764	0.0	1489.8269700559074	459.41140702478725	0.0	1490.4765154809152	467.6694520616426	0.0	1489.029572012729	476.4819482342553	0.0	1493.9318133519773	458.80449901654197	0.0	1494.2261779622877	468.1185838979282	0.0	1490.8783752364889	477.1425409717148	0.0
116	3.8666666666666667	1490.5655395674016	475.2389267830165	0.0	1489.1348393873182	475.473338354601	0.0	1489.3145274393598	488.45667498095554	0.0	1490.9341128212477	501.4773843541691	0.0	1484.5861899066708	504.4190344745064	0.0	1484.6958667329538	503.5905508606341	0.0	1492.466044013962	503.21824452383476	0.0	1492.3037456968746	475.5128458370607	0.0	1492.2711044133669	488.85129135550784	0.0	1493.301042830633	502.45904285470203	0.0	1487.9822418716874	505.27235400931556	0.0	1488.9457498853797	504.7137894830354	0.0	1495.1843475503185	503.6813743810377	0.0	1491.0627813994051	456.29453114393345	0.0	1489.6059644358254	447.29810946403603	0.0	1487.7814260381422	452.59389160921444	0.0	1489.3397136304577	459.31920147924046	0.0	1489.943429897289	467.403227196718	0.0	1488.4951062359517	476.10622612727974	0.0	1493.5686789333538	458.676103768309	0.0	1493.8461932748194	467.9136825307358	0.0	1490.2555630149998	476.8822802238509	0.0
117	3.9	1490.289885757913	474.9468513685281	0.0	1488.964197151397	475.10627852855976	0.0	1489.0557124013142	488.28325688098585	0.0	1490.6963903446324	501.4152110899567	0.0	1484.2705099549603	504.3014484605025	0.0	1484.397992061812	503.4849591216184	0.0	1492.1594934711363	503.02477235253497	0.0	1491.9581473925018	475.1434697876357	0.0	1491.9200954128992	488.65183693482584	0.0	1493.0185364299248	502.38866145288705	0.0	1487.874538979095	505.13017540043774	0.0	1488.6427692885736	504.4953103379437	0.0	1494.7786232465783	503.5003659738976	0.0	1490.7199657904785	456.1489629596738	0.0	1489.0378158108344	447.18931280341883	0.0	1487.42159507925	452.3672472557114	0.0	1489.1296015441	459.19583918607776	0.0	1489.4308716978885	467.16294113140873	0.0	1488.0010492706865	475.7177855303529	0.0	1493.2011947075966	458.49937133692396	0.0	1493.4741423400023	467.608251213598	0.0	1489.7773627560894	476.58565637683057	0.0
118	3.933333333333333	1490.0169300621815	474.6244161572349	0.0	1488.7308216778972	474.61636108581126	0.0	1488.784760859061	488.10642847391074	0.0	1490.4128501923628	501.3426711438369	0.0	1483.898910570346	504.2436013970312	0.0	1484.039891938279	503.3603004095363	0.0	1491.872946563743	502.83593099964935	0.0	1491.5482973817964	474.6906907549941	0.0	1491.503908190225	488.45870558721174	0.0	1492.6535605953463	502.17592125278753	0.0	1487.5312958221425	504.8903005707168	0.0	1488.334541275095	504.1967814416548	0.0	1494.3019503544824	503.20748333588415	0.0	1490.3873562485487	455.87901626637324	0.0	1488.4584459940913	447.10807261848396	0.0	1487.099002727677	452.0591880860608	0.0	1488.9923224500055	459.01435675889684	0.0	1488.9390941820711	466.92231799523387	0.0	1487.493721130728	475.37068318319325	0.0	1492.8204275592334	458.2738638610027	0.0	1493.0801334300631	467.2787894010675	0.0	1489.4249479523078	476.28927360995374	0.0
119	3.966666666666667	1489.698851992863	474.3274754995079	0.0	1488.301187704924	474.1880083583364	0.0	1488.408861024757	487.91948471312213	0.0	1489.9706609594896	501.13599105478767	0.0	1483.5330068485582	504.1011652309698	0.0	1483.6120884290804	503.18265023372624	0.0	1491.5907496547657	502.6803489506401	0.0	1491.0998117958748	474.34999081173817	0.0	1491.0320054040967	488.230063641148	0.0	1492.2357163220242	501.7695877612881	0.0	1486.7984767290795	504.60061765159253	0.0	1488.0320157917636	503.92907884700566	0.0	1493.885924992508	502.8769110698677	0.0	1489.9888902085695	455.57178561275583	0.0	1488.042710155193	446.88941075401794	0.0	1486.6536939072957	451.871703842073	0.0	1488.6512899881484	458.815303291796	0.0	1488.526786173899	466.62717898679443	0.0	1487.0512115255062	475.08884555528493	0.0	1492.3860007597323	458.01655406366194	0.0	1492.6745717765687	467.0007236847428	0.0	1489.116707646107	476.0005929947742	0.0
120	4.0	1489.249357998343	474.0695675975753	0.0	1487.7021858963358	473.95870997451743	0.0	1487.9289897511348	487.60575935996764	0.0	1489.469837643443	500.7549946248989	0.0	1483.203422444499	503.7980052112359	0.0	1483.2347105724762	502.86805221056613	0.0	1491.2109303225002	502.3780363688677	0.0	1490.6275725069113	474.17305552627	0.0	1490.608926379676	487.9277779048184	0.0	1491.8158143461415	501.3880786627267	0.0	1486.304691850395	504.29724760974904	0.0	1487.8525293007965	503.684774045513	0.0	1493.5542121085464	502.54447774011743	0.0	1489.5294161668717	455.21196614977544	0.0	1487.7017773867747	446.2686657061262	0.0	1486.0706369670947	451.578730156133	0.0	1488.181546754331	458.5150130042509	0.0	1488.2612934636277	466.2606074044894	0.0	1486.7286277642893	474.86296280666966	0.0	1491.8855716508278	457.6830190630993	0.0	1492.2813016856005	466.70530461825183	0.0	1488.7500457722283	475.6787810726149	0.0
121	4.033333333333333	1488.7142374741672	473.7811213074435	0.0	1487.1108586890334	473.8027575199629	0.0	1487.4617570367218	487.15891351839963	0.0	1489.1004363973925	500.34638433586485	0.0	1482.8595466900151	503.4642534731371	0.0	1482.973743756083	502.4816353441633	0.0	1490.729142068772	501.9469782160552	0.0	1490.1736803104336	473.96772319945944	0.0	1490.2927496348855	487.57850751574455	0.0	1491.43723891109	501.15983349523026	0.0	1486.4832458088833	504.012586677625	0.0	1487.6823430876932	503.40990095530503	0.0	1493.2180240562043	502.23887033147315	0.0	1489.0643357774888	454.7414327996063	0.0	1487.2678831001779	445.4317967482586	0.0	1485.5004038994787	450.97374232485805	0.0	1487.8013067872107	458.0045492449434	0.0	1488.0080470032883	465.86357423052823	0.0	1486.458396642479	474.66109696231257	0.0	1491.407966410081	457.20879833374806	0.0	1491.955877416224	466.30996750496234	0.0	1488.3721436073652	475.3395482925679	0.0
